# xmcd
#
# Track frame offsets:
#	300
#	13585
#	31997
#	46249
#	58185
#	76553
#	92080
#	105911
#	119860
#	136209
#	150702
#	163005
#	178028
#	192757
#	208517
#
# Disc length: 2946 seconds
#
# Revision: 1
# Processed by: cddbd v1.5.2PL0 Copyright (c) Steve Scherf et al.
# Submitted via: audiograbber 1.83.01
#
DISCID=be0b7e0f
DTITLE=Daniel O'Donnell - Through The Years Disk 3
DYEAR=2007
DGENRE=Country
TTITLE0=Whatever Happened To Old Fashioned Love
TTITLE1=The Love in Your Eyes
TTITLE2=Leaving is Easy (When Loving is Hard)
TTITLE3=I Wonder Where You Are Tonight
TTITLE4=My Dreams Just Come True
TTITLE5=Don't Forget To Remember
TTITLE6=Crying My Heart Out Over You
TTITLE7=Help Me Make It Through The Night
TTITLE8=Love Me Tender
TTITLE9=Someday You'll Want Me To Want You
TTITLE10=It Comes And Goes
TTITLE11=Broken Hearts Always Mend
TTITLE12=Old Loves Never Die
TTITLE13=Take Good Care Of Her
TTITLE14=I Can't Help It (If I'm Still In Love With You)
EXTD=
EXTT0=
EXTT1=
EXTT2=
EXTT3=
EXTT4=
EXTT5=
EXTT6=
EXTT7=
EXTT8=
EXTT9=
EXTT10=
EXTT11=
EXTT12=
EXTT13=
EXTT14=
PLAYORDER=
